<?xml version="1.0" encoding="utf-8"?>
<!-- Generator: Adobe Illustrator 16.0.0, SVG Export Plug-In . SVG Version: 6.00 Build 0)  -->
<!DOCTYPE svg PUBLIC "-//W3C//DTD SVG 1.1//EN" "http://www.w3.org/Graphics/SVG/1.1/DTD/svg11.dtd">
<svg version="1.1" id="Layer_1" xmlns="http://www.w3.org/2000/svg" xmlns:xlink="http://www.w3.org/1999/xlink" x="0px" y="0px"
	 width="146px" height="146px" viewBox="0 0 146 146" enable-background="new 0 0 146 146" xml:space="preserve">
<g>
	<rect fill="#139882" width="146" height="146"/>
</g>
<g>
	<g>
		<g>
			<path fill="#FFFFFF" d="M80.916,54.487H65.758c-0.552,0-1-0.448-1-1s0.448-1,1-1h15.158c0.552,0,1,0.448,1,1
				S81.468,54.487,80.916,54.487z"/>
		</g>
		<g>
			<path fill="#FFFFFF" d="M73.338,96.318c-3.576,0-6.484-2.908-6.484-6.482V53.843h2v35.993c0,2.472,2.012,4.482,4.484,4.482
				c2.472,0,4.482-2.011,4.482-4.482V53.843h2v35.993C79.82,93.41,76.912,96.318,73.338,96.318z"/>
		</g>
		<g>
			<path fill="#FFFFFF" d="M78.82,75.612v14.224c0,3.029-2.455,5.482-5.482,5.482l0,0c-3.029,0-5.484-2.453-5.484-5.482V75.612
				H78.82z"/>
		</g>
		<g>
			<path fill-rule="evenodd" clip-rule="evenodd" fill="#FFFFFF" d="M74.252,71.259c0,1.192-0.967,2.155-2.156,2.155l0,0
				c-1.189,0-2.156-0.963-2.156-2.155l0,0c0-1.189,0.967-2.154,2.156-2.154l0,0C73.285,69.105,74.252,70.07,74.252,71.259
				L74.252,71.259z"/>
		</g>
		<g>
			<path fill-rule="evenodd" clip-rule="evenodd" fill="#FFFFFF" d="M76.939,67.064c0,0.653-0.529,1.184-1.182,1.184l0,0
				c-0.652,0-1.182-0.531-1.182-1.184l0,0c0-0.653,0.529-1.181,1.182-1.181l0,0C76.41,65.883,76.939,66.411,76.939,67.064
				L76.939,67.064z"/>
		</g>
	</g>
	<g>
		<g>
			<path fill="#FFFFFF" d="M99.359,54.487H84.201c-0.552,0-1-0.448-1-1s0.448-1,1-1h15.158c0.552,0,1,0.448,1,1
				S99.912,54.487,99.359,54.487z"/>
		</g>
		<g>
			<path fill="#FFFFFF" d="M91.779,96.318c-3.574,0-6.482-2.908-6.482-6.482V53.843h2v35.993c0,2.472,2.011,4.482,4.482,4.482
				c2.473,0,4.484-2.011,4.484-4.482V53.843h2v35.993C98.264,93.41,95.355,96.318,91.779,96.318z"/>
		</g>
		<g>
			<path fill="#FFFFFF" d="M97.264,66.612v23.224c0,3.029-2.455,5.482-5.484,5.482l0,0c-3.027,0-5.482-2.453-5.482-5.482V66.612
				H97.264z"/>
		</g>
		<g>
			<path fill-rule="evenodd" clip-rule="evenodd" fill="#FFFFFF" d="M92.695,62.259c0,1.192-0.967,2.155-2.156,2.155l0,0
				c-1.191,0-2.156-0.963-2.156-2.155l0,0c0-1.189,0.965-2.154,2.156-2.154l0,0C91.729,60.105,92.695,61.07,92.695,62.259
				L92.695,62.259z"/>
		</g>
		<g>
			<path fill-rule="evenodd" clip-rule="evenodd" fill="#FFFFFF" d="M95.383,58.064c0,0.653-0.529,1.184-1.182,1.184l0,0
				c-0.652,0-1.184-0.531-1.184-1.184l0,0c0-0.653,0.531-1.181,1.184-1.181l0,0C94.854,56.883,95.383,57.411,95.383,58.064
				L95.383,58.064z"/>
		</g>
	</g>
	<g>
		<g>
			<path fill="#FFFFFF" d="M62.473,54.487H47.314c-0.552,0-1-0.448-1-1s0.448-1,1-1h15.158c0.552,0,1,0.448,1,1
				S63.025,54.487,62.473,54.487z"/>
		</g>
		<g>
			<path fill="#FFFFFF" d="M54.895,96.318c-3.576,0-6.484-2.908-6.484-6.482V53.843h2v35.993c0,2.472,2.012,4.482,4.484,4.482
				c2.472,0,4.482-2.011,4.482-4.482V53.843h2v35.993C61.377,93.41,58.469,96.318,54.895,96.318z"/>
		</g>
		<g>
			<path fill="#FFFFFF" d="M60.377,82.612v7.224c0,3.029-2.455,5.482-5.482,5.482l0,0c-3.029,0-5.484-2.453-5.484-5.482v-7.224
				H60.377z"/>
		</g>
		<g>
			<path fill-rule="evenodd" clip-rule="evenodd" fill="#FFFFFF" d="M55.809,78.259c0,1.192-0.967,2.155-2.156,2.155l0,0
				c-1.189,0-2.156-0.963-2.156-2.155l0,0c0-1.189,0.967-2.154,2.156-2.154l0,0C54.842,76.105,55.809,77.07,55.809,78.259
				L55.809,78.259z"/>
		</g>
		<g>
			<path fill-rule="evenodd" clip-rule="evenodd" fill="#FFFFFF" d="M58.496,74.064c0,0.653-0.529,1.184-1.182,1.184l0,0
				c-0.652,0-1.182-0.531-1.182-1.184l0,0c0-0.653,0.529-1.181,1.182-1.181l0,0C57.967,72.883,58.496,73.411,58.496,74.064
				L58.496,74.064z"/>
		</g>
	</g>
</g>
</svg>
